<?xml version="1.0" encoding="UTF-8"?>
<svg width="302px" height="62px" viewBox="0 0 302 62" version="1.1" xmlns="http://www.w3.org/2000/svg" xmlns:xlink="http://www.w3.org/1999/xlink">
    <!-- Generator: Sketch 49.2 (51160) - http://www.bohemiancoding.com/sketch -->
    <title>Logo 1</title>
    <desc>Created with Sketch.</desc>
    <defs>
        <path d="M0.43948264,0.0937438784 L0.0822414764,0.101221503 C0.128302784,0.244390656 0.198382859,0.395584576 0.283816703,0.547872784 C0.342343447,0.652559527 0.408471067,0.757428652 0.479311229,0.860838728 C0.847497654,1.3963096 1.34763528,1.88071376 1.64209321,1.98704194 L1.9891492,1.9883186 C1.71779794,1.8697709 1.22039662,1.38609626 0.851298092,0.856279201 C0.672981545,0.600398536 0.524156397,0.334304531 0.446323428,0.0935614973 L0.43948264,0.0937438784 Z" id="path-1"></path>
        <path d="M3.58186747,0.0955980861 L3.57172586,0.0961148325 C3.47472624,0.287311005 3.13285574,1.10049761 2.19655585,1.89990431 C1.69160167,2.33104306 1.06069519,2.66968421 0.261797804,2.843311 C0.239878834,2.84778947 0.045061719,2.87638278 0.0219977281,2.87862201 L1.19368118,2.90135885 L1.35300265,2.90428708 C1.37459447,2.9022201 1.39700417,2.9011866 1.41712382,2.89653589 C2.06569633,2.74840191 2.43897312,2.39270813 2.89092919,1.88457416 C3.18634457,1.55230622 3.49075653,1.15492823 3.65956532,0.816287081 C3.71109125,0.712421053 3.75738281,0.612516746 3.79876713,0.517435407 C3.8692677,0.355349282 3.92504657,0.208937799 3.96626732,0.0885358852 L3.58186747,0.0955980861 Z" id="path-3"></path>
        <path d="M1.6321614,0.046404648 L0.0717860494,0.143426423 C0.239005317,0.692991505 0.490172036,1.24390645 0.796402878,1.77626072 C1.10939005,2.32008886 1.47980607,2.84383771 1.87792305,3.32574065 C2.06203316,3.54830017 2.25205505,3.7614106 2.4451173,3.9637221 C2.78344073,4.31924363 3.15419456,4.63916239 3.50434157,4.90356782 C4.26257116,5.47574319 5.01860494,5.83278332 5.53124179,5.91934362 L5.75301845,5.92271829 L6.9005818,5.94380998 C6.74079449,5.93503584 6.42155771,5.85758715 6.23288708,5.76022791 C5.89371911,5.58525124 4.88178918,5.03551743 3.54589302,3.39171546 C2.75759775,2.42149771 2.11135439,1.16595157 1.64246481,0.0457297139 L1.6321614,0.046404648 Z" id="path-5"></path>
        <path d="M11.4714059,0.144992481 L11.4643391,0.145841422 C10.8671997,1.17034286 9.81794947,2.2846622 8.45728093,3.43803281 C8.21781483,3.64075981 7.96806984,3.84518469 7.71045507,4.05011893 C7.34796346,4.33841914 6.9676444,4.62858701 6.57190699,4.91977362 C6.18773334,5.2026406 5.78926561,5.48686589 5.37762804,5.77109118 C4.00362906,6.72088585 2.75024647,7.29239262 0.0552490531,8.67837293 L5.55782989,8.91352946 C6.82968237,7.87595434 7.97481536,6.8443218 8.96978014,5.83136596 C9.26658319,5.52931292 9.55021641,5.22878797 9.81955555,4.9299609 C10.0949978,4.62485167 10.3555035,4.32161012 10.6010727,4.02074559 C10.774529,3.80851046 10.9396337,3.59712427 11.0975111,3.38726617 C11.5059365,2.84445359 11.861522,2.31063978 12.160413,1.78803199 C12.5012225,1.19241531 12.7686344,0.610721258 12.9550999,0.0473643199 L11.4714059,0.144992481 Z" id="path-7"></path>
    </defs>
    <g id="Page-1" stroke="none" stroke-width="1" fill="none" fill-rule="evenodd">
        <g id="Logo-1">
            <text id="archive" font-family="GothamHTF-Book, Gotham HTF" font-size="62" font-weight="300" letter-spacing="2.62090921" fill="#FFFFFF">
                <tspan x="69" y="61">archive</tspan>
            </text>
            <g id="SFGMC" transform="translate(72.000000, 8.000000)">
                <path d="M0.901542671,8.34791488 C0.901542671,8.34791488 2.00188706,9.62870335 3.60650092,9.62870335 C4.6153701,9.62870335 5.45614946,9.02574955 5.45614946,8.04643798 C5.45614946,5.81629029 0.244374204,6.16302128 0.244374204,2.84775209 C0.244374204,1.25083612 1.66570741,0 3.69830636,0 C4.84488371,0 6.77048639,0.512445615 6.77048639,1.95894871 L6.77048639,2.83310149 L5.36434401,2.83310149 L5.36434401,2.33563205 C5.36434401,1.77793234 4.55427655,1.37129665 3.69830636,1.37129665 C2.53686842,1.37129665 1.80308534,2.0042028 1.80308534,2.80282357 C1.80308534,4.95743925 7,4.47494599 7,7.97123154 C7,9.59842543 5.71571449,11 3.5764495,11 C1.28329481,11 0,9.41740906 0,9.41740906 L0.901542671,8.34791488 Z" id="Fill-14" fill="#DC3E2A"></path>
                <path d="M10.0042927,1.2180939 L9,1.2180939 L9,0 L15.0110655,0 C15.706191,0 16,0.268715186 16,0.906225133 L16,2.1668605 L14.5937232,2.1668605 L14.5937232,1.52965661 C14.5937232,1.31694926 14.4701898,1.2180939 14.2541734,1.2180939 L11.5497949,1.2180939 L11.5497949,4.50419294 L15.2734904,4.50419294 L15.2734904,5.72228683 L11.5497949,5.72228683 L11.5497949,10 L10.0042927,10 L10.0042927,1.2180939 Z" id="Fill-16" fill="#DC3E2A"></path>
                <path d="M22.997353,0 C25.8438937,0 27.2418688,1.31077961 27.2418688,1.31077961 L26.2817391,2.41090984 C26.2817391,2.41090984 25.0016875,1.38631386 23.0308374,1.38631386 C20.6556265,1.38631386 18.7521093,3.08876458 18.7521093,5.45474457 C18.7521093,7.92621204 20.6556265,9.58373291 23.0646858,9.58373291 C25.1873077,9.58373291 26.4502531,8.25732552 26.4502531,8.25732552 L26.4502531,7.1874741 C26.4502531,6.97682472 26.3155875,6.85636062 26.0797406,6.85636062 L25.3554578,6.85636062 L25.3554578,5.56023205 L26.9219469,5.56023205 C27.6800781,5.56023205 28,5.84641568 28,6.52459599 L28,10.8189783 L26.5179499,10.8189783 L26.5179499,10.1561002 C26.5179499,9.93014858 26.5346921,9.704197 26.5346921,9.704197 L26.5008437,9.704197 C26.5008437,9.704197 25.1702015,11 22.7949906,11 C19.628164,11 17,8.77011188 17,5.45474457 C17,2.39560765 19.5943156,0 22.997353,0" id="Fill-18" fill="#FFFFFF"></path>
                <path d="M29,8.7819061 L29.5407928,8.7819061 C29.7639172,8.7819061 29.8749636,8.66866622 29.8911221,8.47034339 L30.6546955,0 L32.2935763,0 L34.9349695,5.29717818 C35.2055378,5.83583277 35.4919208,6.55781355 35.4919208,6.55781355 L35.5238939,6.55781355 C35.5238939,6.55781355 35.8102769,5.83583277 36.0808452,5.29717818 L38.7218946,0 L40.3607754,0 L41.1246926,8.47034339 C41.1405072,8.66866622 41.2518975,8.7819061 41.474678,8.7819061 L42,8.7819061 L42,10 L40.5835559,10 C39.8674265,10 39.6130167,9.73128481 39.5652289,9.09377487 L39.1038532,3.81006305 C39.0560654,3.21540062 39.07188,2.33672033 39.07188,2.33672033 L39.0402507,2.33672033 C39.0402507,2.33672033 38.7218946,3.27202057 38.4513263,3.81006305 L36.176077,8.20132215 L34.8393939,8.20132215 L32.5641446,3.81006305 C32.2935763,3.28609904 31.9594055,2.32294791 31.9594055,2.32294791 L31.9277762,2.32294791 C31.9277762,2.32294791 31.9435908,3.21540062 31.895803,3.81006305 L31.450242,9.09377487 C31.4024542,9.73128481 31.1480443,10 30.4161003,10 L29,10 L29,8.7819061 Z" id="Fill-20" fill="#FFFFFF"></path>
                <path d="M48.5659736,0 C50.0593831,0 52.7326403,0.602971645 52.7326403,2.30542236 L52.7326403,3.34499497 L51.2861122,3.34499497 L51.2861122,2.7423489 C51.2861122,1.85319363 49.7138878,1.40129048 48.5975676,1.40129048 C46.3649273,1.40129048 44.6354124,3.01388149 44.6354124,5.40948914 C44.6354124,7.7302137 46.3802147,9.58373291 48.644449,9.58373291 C50.845835,9.58373291 52.1510395,8.13686142 52.1510395,8.13686142 L53,9.22201504 C53,9.22201504 51.4277755,11 48.6291616,11 C45.3114554,11 43,8.54383472 43,5.40948914 C43,2.33570118 45.3899307,0 48.5659736,0" id="Fill-22" fill="#FFFFFF"></path>
            </g>
            <g id="Book">
                <g id="noun_Book_626429_000000-(1)" fill="#DC3E2A" fill-rule="nonzero">
                    <path d="M53.375,61 L15.25,61 L15.25,0 L30.5,0 L30.5,30.492375 L41.9375,19.054875 L53.375,30.492375 L53.375,0 C57.591625,0 61,3.40075 61,7.625 L61,53.35975 C61,57.584 57.591625,61 53.375,61 Z M0,53.35975 L0,7.625 C0,3.40075 3.423625,0 7.625,0 L7.625,61 C3.423625,61 0,57.584 0,53.35975 Z" id="Shape"></path>
                </g>
                <g id="Swoop-Copy" transform="translate(30.000000, 42.000000)">
                    <g id="Group-27" transform="translate(21.000000, 3.000000)">
                        <mask id="mask-2" fill="white">
                            <use xlink:href="#path-1"></use>
                        </mask>
                        <use id="Clip-26" fill="#FFFFFF" xlink:href="#path-1"></use>
                        <path d="M0.43948264,0.0937438784 L0.0822414764,0.101221503 C0.128302784,0.244390656 0.198382859,0.395584576 0.283816703,0.547872784 C0.342343447,0.652559527 0.408471067,0.757428652 0.479311229,0.860838728 C0.847497654,1.3963096 1.34763528,1.88071376 1.64209321,1.98704194 L1.9891492,1.9883186 C1.71779794,1.8697709 1.22039662,1.38609626 0.851298092,0.856279201 C0.672981545,0.600398536 0.524156397,0.334304531 0.446323428,0.0935614973 L0.43948264,0.0937438784 Z" id="Fill-25" mask="url(#mask-2)"></path>
                    </g>
                    <g id="Group-30" transform="translate(17.000000, 3.000000)">
                        <mask id="mask-4" fill="white">
                            <use xlink:href="#path-3"></use>
                        </mask>
                        <use id="Clip-29" fill="#FFFFFF" xlink:href="#path-3"></use>
                        <path d="M3.58186747,0.0955980861 L3.57172586,0.0961148325 C3.47472624,0.287311005 3.13285574,1.10049761 2.19655585,1.89990431 C1.69160167,2.33104306 1.06069519,2.66968421 0.261797804,2.843311 C0.239878834,2.84778947 0.045061719,2.87638278 0.0219977281,2.87862201 L1.19368118,2.90135885 L1.35300265,2.90428708 C1.37459447,2.9022201 1.39700417,2.9011866 1.41712382,2.89653589 C2.06569633,2.74840191 2.43897312,2.39270813 2.89092919,1.88457416 C3.18634457,1.55230622 3.49075653,1.15492823 3.65956532,0.816287081 C3.71109125,0.712421053 3.75738281,0.612516746 3.79876713,0.517435407 C3.8692677,0.355349282 3.92504657,0.208937799 3.96626732,0.0885358852 L3.58186747,0.0955980861 Z" id="Fill-28" mask="url(#mask-4)"></path>
                    </g>
                    <g id="Group-33" transform="translate(12.000000, 0.000000)">
                        <mask id="mask-6" fill="white">
                            <use xlink:href="#path-5"></use>
                        </mask>
                        <use id="Clip-32" fill="#FFFFFF" xlink:href="#path-5"></use>
                        <path d="M1.6321614,0.046404648 L0.0717860494,0.143426423 C0.239005317,0.692991505 0.490172036,1.24390645 0.796402878,1.77626072 C1.10939005,2.32008886 1.47980607,2.84383771 1.87792305,3.32574065 C2.06203316,3.54830017 2.25205505,3.7614106 2.4451173,3.9637221 C2.78344073,4.31924363 3.15419456,4.63916239 3.50434157,4.90356782 C4.26257116,5.47574319 5.01860494,5.83278332 5.53124179,5.91934362 L5.75301845,5.92271829 L6.9005818,5.94380998 C6.74079449,5.93503584 6.42155771,5.85758715 6.23288708,5.76022791 C5.89371911,5.58525124 4.88178918,5.03551743 3.54589302,3.39171546 C2.75759775,2.42149771 2.11135439,1.16595157 1.64246481,0.0457297139 L1.6321614,0.046404648 Z" id="Fill-31" mask="url(#mask-6)"></path>
                    </g>
                    <g id="Group-36">
                        <mask id="mask-8" fill="white">
                            <use xlink:href="#path-7"></use>
                        </mask>
                        <use id="Clip-35" fill="#FFFFFF" xlink:href="#path-7"></use>
                        <path d="M11.4714059,0.144992481 L11.4643391,0.145841422 C10.8671997,1.17034286 9.81794947,2.2846622 8.45728093,3.43803281 C8.21781483,3.64075981 7.96806984,3.84518469 7.71045507,4.05011893 C7.34796346,4.33841914 6.9676444,4.62858701 6.57190699,4.91977362 C6.18773334,5.2026406 5.78926561,5.48686589 5.37762804,5.77109118 C4.00362906,6.72088585 2.75024647,7.29239262 0.0552490531,8.67837293 L5.55782989,8.91352946 C6.82968237,7.87595434 7.97481536,6.8443218 8.96978014,5.83136596 C9.26658319,5.52931292 9.55021641,5.22878797 9.81955555,4.9299609 C10.0949978,4.62485167 10.3555035,4.32161012 10.6010727,4.02074559 C10.774529,3.80851046 10.9396337,3.59712427 11.0975111,3.38726617 C11.5059365,2.84445359 11.861522,2.31063978 12.160413,1.78803199 C12.5012225,1.19241531 12.7686344,0.610721258 12.9550999,0.0473643199 L11.4714059,0.144992481 Z" id="Fill-34" mask="url(#mask-8)"></path>
                    </g>
                </g>
            </g>
        </g>
    </g>
</svg>