<?xml version="1.0" encoding="UTF-8"?>
<svg width="61px" height="61px" viewBox="0 0 61 61" version="1.1" xmlns="http://www.w3.org/2000/svg" xmlns:xlink="http://www.w3.org/1999/xlink">
    <!-- Generator: Sketch 49.2 (51160) - http://www.bohemiancoding.com/sketch -->
    <title>Book</title>
    <desc>Created with Sketch.</desc>
    <defs>
        <path d="M0.43948264,0.0937438784 L0.0822414764,0.101221503 C0.128302784,0.244390656 0.198382859,0.395584576 0.283816703,0.547872784 C0.342343447,0.652559527 0.408471067,0.757428652 0.479311229,0.860838728 C0.847497654,1.3963096 1.34763528,1.88071376 1.64209321,1.98704194 L1.9891492,1.9883186 C1.71779794,1.8697709 1.22039662,1.38609626 0.851298092,0.856279201 C0.672981545,0.600398536 0.524156397,0.334304531 0.446323428,0.0935614973 L0.43948264,0.0937438784 Z" id="path-1"></path>
        <path d="M3.58186747,0.0955980861 L3.57172586,0.0961148325 C3.47472624,0.287311005 3.13285574,1.10049761 2.19655585,1.89990431 C1.69160167,2.33104306 1.06069519,2.66968421 0.261797804,2.843311 C0.239878834,2.84778947 0.045061719,2.87638278 0.0219977281,2.87862201 L1.19368118,2.90135885 L1.35300265,2.90428708 C1.37459447,2.9022201 1.39700417,2.9011866 1.41712382,2.89653589 C2.06569633,2.74840191 2.43897312,2.39270813 2.89092919,1.88457416 C3.18634457,1.55230622 3.49075653,1.15492823 3.65956532,0.816287081 C3.71109125,0.712421053 3.75738281,0.612516746 3.79876713,0.517435407 C3.8692677,0.355349282 3.92504657,0.208937799 3.96626732,0.0885358852 L3.58186747,0.0955980861 Z" id="path-3"></path>
        <path d="M1.6321614,0.046404648 L0.0717860494,0.143426423 C0.239005317,0.692991505 0.490172036,1.24390645 0.796402878,1.77626072 C1.10939005,2.32008886 1.47980607,2.84383771 1.87792305,3.32574065 C2.06203316,3.54830017 2.25205505,3.7614106 2.4451173,3.9637221 C2.78344073,4.31924363 3.15419456,4.63916239 3.50434157,4.90356782 C4.26257116,5.47574319 5.01860494,5.83278332 5.53124179,5.91934362 L5.75301845,5.92271829 L6.9005818,5.94380998 C6.74079449,5.93503584 6.42155771,5.85758715 6.23288708,5.76022791 C5.89371911,5.58525124 4.88178918,5.03551743 3.54589302,3.39171546 C2.75759775,2.42149771 2.11135439,1.16595157 1.64246481,0.0457297139 L1.6321614,0.046404648 Z" id="path-5"></path>
        <path d="M11.4714059,0.144992481 L11.4643391,0.145841422 C10.8671997,1.17034286 9.81794947,2.2846622 8.45728093,3.43803281 C8.21781483,3.64075981 7.96806984,3.84518469 7.71045507,4.05011893 C7.34796346,4.33841914 6.9676444,4.62858701 6.57190699,4.91977362 C6.18773334,5.2026406 5.78926561,5.48686589 5.37762804,5.77109118 C4.00362906,6.72088585 2.75024647,7.29239262 0.0552490531,8.67837293 L5.55782989,8.91352946 C6.82968237,7.87595434 7.97481536,6.8443218 8.96978014,5.83136596 C9.26658319,5.52931292 9.55021641,5.22878797 9.81955555,4.9299609 C10.0949978,4.62485167 10.3555035,4.32161012 10.6010727,4.02074559 C10.774529,3.80851046 10.9396337,3.59712427 11.0975111,3.38726617 C11.5059365,2.84445359 11.861522,2.31063978 12.160413,1.78803199 C12.5012225,1.19241531 12.7686344,0.610721258 12.9550999,0.0473643199 L11.4714059,0.144992481 Z" id="path-7"></path>
    </defs>
    <g id="Page-1" stroke="none" stroke-width="1" fill="none" fill-rule="evenodd">
        <g id="Logo-1">
            <g id="Book">
                <g id="noun_Book_626429_000000-(1)" fill="#DC3E2A" fill-rule="nonzero">
                    <path d="M53.375,61 L15.25,61 L15.25,0 L30.5,0 L30.5,30.492375 L41.9375,19.054875 L53.375,30.492375 L53.375,0 C57.591625,0 61,3.40075 61,7.625 L61,53.35975 C61,57.584 57.591625,61 53.375,61 Z M0,53.35975 L0,7.625 C0,3.40075 3.423625,0 7.625,0 L7.625,61 C3.423625,61 0,57.584 0,53.35975 Z" id="Shape"></path>
                </g>
                <g id="Swoop-Copy" transform="translate(30.000000, 42.000000)">
                    <g id="Group-27" transform="translate(21.000000, 3.000000)">
                        <mask id="mask-2" fill="white">
                            <use xlink:href="#path-1"></use>
                        </mask>
                        <use id="Clip-26" fill="#FFFFFF" xlink:href="#path-1"></use>
                        <path d="M0.43948264,0.0937438784 L0.0822414764,0.101221503 C0.128302784,0.244390656 0.198382859,0.395584576 0.283816703,0.547872784 C0.342343447,0.652559527 0.408471067,0.757428652 0.479311229,0.860838728 C0.847497654,1.3963096 1.34763528,1.88071376 1.64209321,1.98704194 L1.9891492,1.9883186 C1.71779794,1.8697709 1.22039662,1.38609626 0.851298092,0.856279201 C0.672981545,0.600398536 0.524156397,0.334304531 0.446323428,0.0935614973 L0.43948264,0.0937438784 Z" id="Fill-25" mask="url(#mask-2)"></path>
                    </g>
                    <g id="Group-30" transform="translate(17.000000, 3.000000)">
                        <mask id="mask-4" fill="white">
                            <use xlink:href="#path-3"></use>
                        </mask>
                        <use id="Clip-29" fill="#FFFFFF" xlink:href="#path-3"></use>
                        <path d="M3.58186747,0.0955980861 L3.57172586,0.0961148325 C3.47472624,0.287311005 3.13285574,1.10049761 2.19655585,1.89990431 C1.69160167,2.33104306 1.06069519,2.66968421 0.261797804,2.843311 C0.239878834,2.84778947 0.045061719,2.87638278 0.0219977281,2.87862201 L1.19368118,2.90135885 L1.35300265,2.90428708 C1.37459447,2.9022201 1.39700417,2.9011866 1.41712382,2.89653589 C2.06569633,2.74840191 2.43897312,2.39270813 2.89092919,1.88457416 C3.18634457,1.55230622 3.49075653,1.15492823 3.65956532,0.816287081 C3.71109125,0.712421053 3.75738281,0.612516746 3.79876713,0.517435407 C3.8692677,0.355349282 3.92504657,0.208937799 3.96626732,0.0885358852 L3.58186747,0.0955980861 Z" id="Fill-28" mask="url(#mask-4)"></path>
                    </g>
                    <g id="Group-33" transform="translate(12.000000, 0.000000)">
                        <mask id="mask-6" fill="white">
                            <use xlink:href="#path-5"></use>
                        </mask>
                        <use id="Clip-32" fill="#FFFFFF" xlink:href="#path-5"></use>
                        <path d="M1.6321614,0.046404648 L0.0717860494,0.143426423 C0.239005317,0.692991505 0.490172036,1.24390645 0.796402878,1.77626072 C1.10939005,2.32008886 1.47980607,2.84383771 1.87792305,3.32574065 C2.06203316,3.54830017 2.25205505,3.7614106 2.4451173,3.9637221 C2.78344073,4.31924363 3.15419456,4.63916239 3.50434157,4.90356782 C4.26257116,5.47574319 5.01860494,5.83278332 5.53124179,5.91934362 L5.75301845,5.92271829 L6.9005818,5.94380998 C6.74079449,5.93503584 6.42155771,5.85758715 6.23288708,5.76022791 C5.89371911,5.58525124 4.88178918,5.03551743 3.54589302,3.39171546 C2.75759775,2.42149771 2.11135439,1.16595157 1.64246481,0.0457297139 L1.6321614,0.046404648 Z" id="Fill-31" mask="url(#mask-6)"></path>
                    </g>
                    <g id="Group-36">
                        <mask id="mask-8" fill="white">
                            <use xlink:href="#path-7"></use>
                        </mask>
                        <use id="Clip-35" fill="#FFFFFF" xlink:href="#path-7"></use>
                        <path d="M11.4714059,0.144992481 L11.4643391,0.145841422 C10.8671997,1.17034286 9.81794947,2.2846622 8.45728093,3.43803281 C8.21781483,3.64075981 7.96806984,3.84518469 7.71045507,4.05011893 C7.34796346,4.33841914 6.9676444,4.62858701 6.57190699,4.91977362 C6.18773334,5.2026406 5.78926561,5.48686589 5.37762804,5.77109118 C4.00362906,6.72088585 2.75024647,7.29239262 0.0552490531,8.67837293 L5.55782989,8.91352946 C6.82968237,7.87595434 7.97481536,6.8443218 8.96978014,5.83136596 C9.26658319,5.52931292 9.55021641,5.22878797 9.81955555,4.9299609 C10.0949978,4.62485167 10.3555035,4.32161012 10.6010727,4.02074559 C10.774529,3.80851046 10.9396337,3.59712427 11.0975111,3.38726617 C11.5059365,2.84445359 11.861522,2.31063978 12.160413,1.78803199 C12.5012225,1.19241531 12.7686344,0.610721258 12.9550999,0.0473643199 L11.4714059,0.144992481 Z" id="Fill-34" mask="url(#mask-8)"></path>
                    </g>
                </g>
            </g>
        </g>
    </g>
</svg>